<svg xmlns="http://www.w3.org/2000/svg" viewBox="0 0 73.2 95.02"><defs><style>.cls-1{fill:#333;}</style></defs><title>pakke</title><g id="Ansigtsbehandling"><path class="cls-1" d="M34.26,95H2.63a.83.83,0,0,1-.89-.73V58.46a.83.83,0,0,1,.89-.74H34.26ZM2.63,58a.48.48,0,0,0-.52.43V94.29a.48.48,0,0,0,.52.42H33.89V58Z"/><path class="cls-1" d="M70.6,95H39V57.72H70.6a.83.83,0,0,1,.89.74V94.29A.83.83,0,0,1,70.6,95Zm-31.26-.31H70.6a.48.48,0,0,0,.52-.42V58.46A.48.48,0,0,0,70.6,58H39.34Z"/><path class="cls-1" d="M72.31,54.29H39V35.22H72.31a.89.89,0,0,1,.89.89V53.4A.89.89,0,0,1,72.31,54.29Zm-33-.37h33a.51.51,0,0,0,.51-.52V36.11a.51.51,0,0,0-.51-.52h-33Z"/><path class="cls-1" d="M34.23,54.29H.89A.89.89,0,0,1,0,53.4V36.11a.89.89,0,0,1,.89-.89H34.23ZM.89,35.59a.52.52,0,0,0-.52.52V53.4a.52.52,0,0,0,.52.52h33V35.59Z"/><path class="cls-1" d="M30.44,28.11,30,27.59,29.53,27c-.16-.21-.33-.41-.49-.64l-.5-.69-.26-.37L28,24.94l-.51-.79c-.32-.56-.66-1.12-1-1.72s-.58-1.2-.87-1.81-.52-1.25-.72-1.88-.4-1.25-.59-1.85c-.08-.3-.15-.6-.22-.89s-.07-.29-.11-.44L24,15.14c0-.29-.1-.56-.16-.82s-.08-.53-.12-.77-.07-.48-.1-.71,0-.44-.06-.64,0-.39-.06-.56,0-.33,0-.48c0-.34,0-.59,0-.74l-.56-4.49c-.5,1.19-7.41,18.12,2.95,23a7.29,7.29,0,0,0,4.87,0l.23-.09.14-.06-.2-.21-.39-.45"/><path class="cls-1" d="M33.28,16.87a24.36,24.36,0,0,0-2.54-2.25c-8.11-6.24-7.87-8.76-7.87-8.76l0,.07c.14,1.14.38,3,.56,4.46v-.14s.05.33.15.9c0,.14.05.3.09.47s.08.35.12.54.09.41.14.63.12.44.19.68.12.48.2.73l.26.78c0,.13.09.27.13.41s.1.27.16.4c.1.28.2.56.32.84.25.56.48,1.14.78,1.71s.59,1.14.9,1.7.67,1.1,1,1.62.74,1,1.09,1.5l.57.68.27.32c.09.11.19.21.28.31l.54.59c.17.19.35.36.52.53l.48.47.45.41.39.35.37.3.34.29a7.37,7.37,0,0,0,.91-1,9.36,9.36,0,0,1-.8-9.51"/><path class="cls-1" d="M49.62.09l-.73,5.8c0,.2,0,.52,0,1,0,.19,0,.4,0,.62s0,.47-.07.73-.06.53-.09.82-.08.6-.13.92-.09.65-.15,1-.14.69-.21,1.06c0,.18-.07.36-.11.55s-.09.37-.14.56c-.1.38-.19.77-.29,1.16-.24.77-.46,1.58-.76,2.38s-.61,1.61-.93,2.43-.71,1.59-1.13,2.35-.82,1.49-1.23,2.21q-.33.53-.66,1c-.1.17-.21.34-.32.5l-.33.47-.64.9c-.21.29-.43.55-.64.81s-.39.52-.59.75l-.58.67-.51.58L39,29.6a1,1,0,0,0,.18.08l.29.12a9.42,9.42,0,0,0,6.29,0C59.19,23.51,50.27,1.63,49.62.09Z"/><path class="cls-1" d="M39.57,24.81l.69-.76c.12-.13.24-.27.37-.4l.35-.42.72-.88c.47-.62,1-1.25,1.41-1.93s.9-1.39,1.34-2.1.82-1.45,1.17-2.19.68-1.49,1-2.21c.15-.36.28-.73.42-1.08.07-.18.13-.36.2-.53s.11-.35.17-.52c.11-.35.22-.68.33-1s.18-.64.27-.95.17-.6.24-.88.12-.55.18-.8.11-.49.16-.71.07-.42.11-.61c.13-.73.2-1.15.2-1.15s0,.06,0,.17c.23-1.84.54-4.28.73-5.76l0-.09s.31,3.26-10.16,11.33a30.07,30.07,0,0,0-3.68,3.31,9.13,9.13,0,0,0-1.55,2.23A9.38,9.38,0,0,0,35,26.38a9.24,9.24,0,0,0,1.28,1.46l.44-.36.47-.4.5-.45.58-.52.62-.62C39.11,25.27,39.34,25.05,39.57,24.81Z"/></g></svg>