<svg xmlns="http://www.w3.org/2000/svg" viewBox="0 0 108.74 92.68"><defs><style>.cls-1{fill:#333;}</style></defs><title>Artboard 22</title><g id="voksbehandling"><path class="cls-1" d="M103.52,89.23c-4,0-7.26-2.93-7.3-3s-2.86-2.54-8.82-2.41-8.07-1.1-8.3-1.24a2.38,2.38,0,0,1-1.22-1.23c-.51-1.07-.42-2.55.26-4.37l0,0c.17-.36-.6-3.53-5.22-6.45-5.18-3.28-27.09-18.39-31.49-27v0c0-.05-1-4.76-7-6.81l-.08,0c-.5-.1-3.25-.43-6.4-.81-9.08-1.09-16.64-2-17.32-2.47l.2-.31c.66.43,11,1.66,17.16,2.4l4.64.57a12.12,12.12,0,0,1,2,.3c5.91,2,7.09,6.65,7.19,7C46.18,51.92,68,67,73.14,70.21c4.44,2.8,5.24,5.67,5.36,6.21a1.23,1.23,0,0,1,0,.74,5.46,5.46,0,0,0-.28,4.06,2,2,0,0,0,1,1.06l0,0s2.14,1.31,8.11,1.18c6.13-.12,9,2.4,9.08,2.51s4,3.56,8.41,2.74c2.69-.5,3.32-1.29,3.45-1.72a.63.63,0,0,0,0-.55,19.56,19.56,0,0,1-3.9-2.36,21.16,21.16,0,0,0-3.08-2.68,10.52,10.52,0,0,1-2.86-2.3c-.66-.81-9.32-7.24-10.44-8-.63-.4-2.52-2.08-4.18-3.55-1.1-1-2.14-1.9-2.48-2.15-.52-.38-8.73-9.42-12.24-13.29-.46-.51-11-12.18-11.65-13h0c-.3-.45-.6-.92-.91-1.41-2.35-3.68-5.27-8.25-9.37-11.44C38,19.24,25.67,13.12,16.94,9.24,7.47,5,.07,2.48,0,2.46L.12,2.1c.08,0,7.49,2.58,17,6.79,8.76,3.89,21.12,10,30.31,17.17,4.16,3.23,7.1,7.84,9.46,11.54.31.49.61,1,.9,1.4h0c.25.34,5.93,6.66,11.74,13.07,7.1,7.83,11.72,12.84,12,13.09s1.35,1.14,2.51,2.17c1.57,1.39,3.52,3.12,4.13,3.51,1,.67,9.81,7.15,10.53,8a11.31,11.31,0,0,0,2.63,2.17,17.85,17.85,0,0,1,3.32,2.83,22.11,22.11,0,0,0,3.72,2.22c.18,0,.31.31.34.58.06.63-.36,1.78-3.79,2.42A7.92,7.92,0,0,1,103.52,89.23Zm4.77-2.77a.15.15,0,0,0,.08,0Zm.11-.35Zm0,0Z"/><path class="cls-1" d="M54.61,91.65a22.54,22.54,0,0,1-.83-4.25A17.88,17.88,0,0,0,53.66,83a11.55,11.55,0,0,1-.14-3.41c.18-1.13-.86-12-1.07-13.2-.12-.71-.13-3.32-.15-5.41,0-1.55,0-2.89-.06-3.32,0-.15.06-1.09.2-2.7a.37.37,0,0,1-.14,0,.72.72,0,0,1-.21-.25c-.15,1.68-.24,2.84-.22,3,0,.42.05,1.81.06,3.29,0,2.22,0,4.74.15,5.48.22,1.31,1.23,12,1.07,13.08a10.55,10.55,0,0,0,.2,3.67,21.6,21.6,0,0,1,.07,4.07,19,19,0,0,0,.85,4.48.66.66,0,0,1-.38.41c-.4.18-1.41.25-3.58-1.42-3.58-2.76-3.59-8-3.59-8.08s0-4-4.2-8.43S38,67.47,38,67.45v0a2,2,0,0,1,.09-1.47,5.47,5.47,0,0,1,3.21-2.51,1.27,1.27,0,0,0,.55-.49c.33-.45,1.92-3,1-8.13-.37-2.18-1-7-1.6-12.7a.31.31,0,0,1-.13-.17,1.93,1.93,0,0,0-.31-.49c.57,6,1.29,11.15,1.67,13.42.92,5.38-.93,8.08-1.31,8.19h0a5.81,5.81,0,0,0-3.43,2.73,2.44,2.44,0,0,0-.1,1.73c0,.27.61,2.71,4.64,7s4.1,8.14,4.1,8.17,0,5.52,3.73,8.39c1.6,1.23,2.65,1.59,3.34,1.59a1.31,1.31,0,0,0,1-.39C54.59,92.09,54.71,91.81,54.61,91.65Z"/><path class="cls-1" d="M56.74,7l-.15-.27c-1.12-2-2.8-5-9.56-6.2C39-.91,25.7.56,7.43,4.91l.09.37C25.74.94,39-.53,47,.91c6.59,1.18,8.22,4.09,9.3,6,.05.1.11.19.16.28,2.09,3.68-1,15.09-1,15.21h0c-.12.6-.78,6.84-1.28,11.67a1.13,1.13,0,0,1,.35.21c.66-6.31,1.22-11.45,1.28-11.78h0C55.92,22,58.91,10.83,56.74,7Z"/><path class="cls-1" d="M41.52,13.41a28.23,28.23,0,0,0-1.38,7.91.17.17,0,0,1,.1,0l.2.1.06,0a28.44,28.44,0,0,1,1.37-7.95Z"/><path class="cls-1" d="M33.22,17.25l-.15-.34a20.89,20.89,0,0,1,7.82-1.46v.38A20.54,20.54,0,0,0,33.22,17.25Z"/><path class="cls-1" d="M69.11,52.22a5.89,5.89,0,0,0-3.94,1.58.11.11,0,0,1-.18,0c-.71-1.13-7.2-7.22-8.68-8.61a1.91,1.91,0,0,1-.47-.72c-.52-1.5-1.75-6.37,4.09-7.24a.12.12,0,0,1,.1,0c.37.33,3.19,2.29,4,2.86a.12.12,0,0,1,0,.21c-.9.22-3.74,1.06-2.59,3.06,0,0,0,0,0,0,.53.47,6.65,7.36,7.76,8.62A.12.12,0,0,1,69.11,52.22Z"/></g></svg>