<svg xmlns="http://www.w3.org/2000/svg" viewBox="0 0 142.48 93.28"><defs><style>.cls-1{fill:#333;}</style></defs><title>Artboard 23</title><g id="Negle"><path class="cls-1" d="M74.88,91a89.74,89.74,0,0,1-12.1-14.44c-5.16-7.75-10.7-19.25-7.8-30.06.27-.52,2.75-5.7-2.38-10.3S16.92.55,16.62.23L16.39,0V1.11L16.44,1c3.25,3.3,30.79,31.3,35.7,35.69s2.33,9.29,2.22,9.5l0,.08C51.33,57.36,57,69.08,62.22,77A91.83,91.83,0,0,0,73.75,90.88C55.52,89.78,39.52,73.26,33.44,67c-.72-.75-1.29-1.34-1.73-1.76-4.16-4-30.37-27.68-30.63-27.92a1.88,1.88,0,0,1-.5-1.16L0,36.72a2.24,2.24,0,0,0,.62,1.09h0c.26.24,26.46,23.88,30.61,27.9.43.41,1,1,1.72,1.74C39.18,73.9,55.75,91,74.64,91.61l.92,0Z"/><path class="cls-1" d="M85.49,93.28A41.32,41.32,0,0,1,74.56,91.6l.18-.67c11.55,3.19,16.79.86,17.94.21-1.81-3.35-19.42-35.52-37.4-47.82l.39-.56c10,6.8,19.69,19.59,26.11,29.12,7,10.31,11.61,19.14,11.66,19.23l.13.25-.23.18C93.2,91.64,91,93.28,85.49,93.28Z"/><polygon class="cls-1" points="125.36 63.48 113.8 43.92 137.52 29.9 137.87 30.49 114.74 44.17 125.61 62.54 142.13 52.77 142.49 53.36 125.36 63.48"/><path class="cls-1" d="M100.19,69.22l-3.28-5.54,21.76-12.87L122,56.35Zm-2.34-5.3,2.58,4.36L121,56.11l-2.58-4.36Z"/><path class="cls-1" d="M97,63.75l3.22,5.45a.42.42,0,0,1,0,.43c-1,1.74-8.6,13.12-28.29,5a.42.42,0,0,1-.1-.73c2.74-2.06,14.62-10.53,24.81-10.38A.41.41,0,0,1,97,63.75Z"/></g></svg>