<svg xmlns="http://www.w3.org/2000/svg" viewBox="0 0 67.69 95.32"><defs><style>.cls-1{fill:#333;}</style></defs><title>pakke</title><g id="Ansigtsbehandling"><path class="cls-1" d="M31.69,95.32H2.43a.82.82,0,0,1-.82-.82V54.29a.82.82,0,0,1,.82-.82H31.69ZM2.43,53.81a.48.48,0,0,0-.47.48V94.5a.47.47,0,0,0,.47.47H31.34V53.81Z"/><path class="cls-1" d="M65.29,95.32H36V53.47H65.29a.82.82,0,0,1,.82.82V94.5A.82.82,0,0,1,65.29,95.32ZM36.38,95H65.29a.48.48,0,0,0,.48-.47V54.29a.49.49,0,0,0-.48-.48H36.38Z"/><path class="cls-1" d="M66.87,50.29H36V32.65H66.87a.83.83,0,0,1,.82.83v16A.82.82,0,0,1,66.87,50.29ZM36.38,50H66.87a.48.48,0,0,0,.47-.48v-16a.47.47,0,0,0-.47-.48H36.38Z"/><path class="cls-1" d="M26.33,27.15a6.87,6.87,0,0,1-2.26-.38h0a8.28,8.28,0,0,1-4.42-4.94,15.54,15.54,0,0,1-.58-6.61,34.31,34.31,0,0,1,2.31-9l.25-.59.57,4.6c0,.09,0,.2,0,.34l0,.33a.76.76,0,0,0,0,.15c0,.08,0,.17,0,.27s0,.27.05.42v.07c0,.18,0,.36.06.56l.06.45,0,.17,0,.22c0,.15.05.3.07.45l.22,1.1.15.6.14.56c0,.11.07.23.11.35.12.42.25.85.4,1.26s.32.86.49,1.27l.15.38c.05.12.11.25.17.37.18.41.38.83.59,1.22s.43.8.65,1.17c.06.12.13.23.19.34s.19.3.29.45l.15.24.22.34.22.3.44.63.29.36.14.19.14.17.27.34.39.45.34.39.17.18.18.18-.27.12-.09,0-.19.07h0A5.81,5.81,0,0,1,26.33,27.15Zm-2.13-.7a6.27,6.27,0,0,0,4.16,0h0l.08,0h0L28.1,26h0l-.4-.45-.27-.34L27.29,25l-.14-.18-.3-.38-.44-.63a3.46,3.46,0,0,1-.22-.31L26,23.17l-.15-.24-.29-.46-.2-.34c-.22-.38-.45-.78-.66-1.19s-.41-.82-.59-1.24l-.18-.37-.15-.39c-.17-.42-.35-.85-.49-1.28s-.29-.86-.41-1.28c0-.12-.07-.24-.11-.36s-.1-.38-.14-.57l-.18-.73-.19-1c0-.16-.06-.32-.08-.47l0-.22,0-.17L22,12.42,22,11.85v-.07c0-.15,0-.29,0-.42s0-.2,0-.28v-.15l0-.33c0-.14,0-.25,0-.33L21.44,7a33.9,33.9,0,0,0-2,8.27C18.84,20.91,20.46,24.68,24.2,26.45Z"/><path class="cls-1" d="M30.64,25.48l-.18-.15c-.07-.06-.15-.12-.23-.2l-.11-.08-.22-.19-.35-.31-.23-.21-.16-.15-.27-.26-.16-.16-.16-.16c-.1-.1-.21-.2-.31-.31l-.19-.21-.29-.31-.18-.21-.06-.06-.25-.3L27.11,22l-.32-.38c-.08-.11-.16-.21-.23-.32-.25-.32-.5-.66-.74-1s-.47-.71-.69-1.07l-.22-.36-.21-.37c-.2-.37-.42-.76-.6-1.15s-.36-.76-.53-1.14l-.16-.37-.19-.49-.09-.25L23,14.71l0-.05c0-.11-.07-.21-.1-.32l-.23-.68q-.06-.24-.12-.45L22.46,13l-.06-.23c0-.13-.08-.25-.11-.38l-.12-.55c0-.1-.05-.2-.07-.29l0-.19c0-.1,0-.19,0-.28l0-.14-.12-.69h0c-.11-.85-.24-1.88-.35-2.77l-.15-1.22.48-1.12-.11,1.11s0,2.25,6.88,7.58a22.28,22.28,0,0,1,2.26,2l.08.09-.05.11a8,8,0,0,0,.69,8.21l.08.11-.08.1a7.35,7.35,0,0,1-.83.93ZM22.18,10.09l.14.79,0,.15c0,.08,0,.16,0,.25l0,.19c0,.09,0,.19.07.3l.12.54c0,.12.06.24.1.37l.06.23.06.21.12.43.23.68c0,.11.06.21.1.32v0c.05.11.09.23.14.35a2,2,0,0,0,.1.26l.18.48.16.36c.16.38.33.76.52,1.13s.39.77.59,1.13l.21.37.21.35c.22.35.44.72.69,1.06s.48.68.72,1l.24.32.3.37.19.22.24.29.05.06.19.21.29.31.18.2q.15.17.3.3c.05.06.11.11.16.16l.16.17.26.25.16.14.23.21.35.32.21.17.11.09.18.15a7.87,7.87,0,0,0,.6-.68,8.37,8.37,0,0,1-.7-8.35,23.54,23.54,0,0,0-2.14-1.88c-4.13-3.18-5.83-5.28-6.53-6.51.11.81.22,1.72.32,2.49Z"/><path class="cls-1" d="M38.94,28a7.35,7.35,0,0,1-2.77-.52l-.26-.1-.09,0-.07,0-.23-.1.22-.24a1.49,1.49,0,0,0,.17-.18l.65-.74.31-.36.34-.42.18-.23.19-.24q.18-.22.36-.48l.57-.79c.1-.13.19-.27.29-.41l.11-.16c.05-.09.11-.18.17-.27l.18-.27c.13-.21.26-.42.4-.63l.24-.43c.29-.49.58-1,.84-1.51s.52-1.05.76-1.58c.08-.16.15-.33.23-.49l.21-.52c.21-.52.43-1.06.61-1.6s.36-1.08.52-1.61c0-.17.09-.33.14-.49s.11-.41.16-.61.06-.27.1-.4L43.6,12c0-.15.06-.29.08-.43l.19-.93.09-.55c0-.11,0-.22,0-.32s0-.2,0-.31.05-.33.07-.49l.14-1.37c0-.12,0-.24,0-.36s0-.12,0-.17c0-.26,0-.48,0-.64V6.25L45.06.49l.25.59a44.83,44.83,0,0,1,3,11.59,19.76,19.76,0,0,1-.75,8.51,10.63,10.63,0,0,1-5.67,6.36h0A8.81,8.81,0,0,1,38.94,28Zm-2.83-.91.19.07a8.14,8.14,0,0,0,5.42,0c4.85-2.3,6.94-7.18,6.22-14.52a44.15,44.15,0,0,0-2.7-10.88l-.56,4.46v.2c0,.16,0,.38,0,.63a1.09,1.09,0,0,1,0,.18c0,.12,0,.24,0,.38l-.14,1.37c0,.17,0,.33-.07.51s0,.2,0,.3,0,.21,0,.32l-.09.57-.19.93c0,.14-.05.28-.08.43l0,.06-.12.5c0,.13-.07.26-.1.4s-.1.41-.16.62-.1.33-.14.5c-.16.53-.32,1.08-.53,1.63s-.4,1.08-.61,1.61l-.21.53c-.08.17-.16.33-.23.5-.25.52-.5,1.07-.78,1.59s-.55,1-.84,1.52c-.08.15-.17.29-.25.43s-.27.44-.41.64-.11.18-.17.27-.12.18-.17.27l-.11.17q-.15.22-.3.42l-.57.8c-.12.17-.25.33-.37.48l-.19.24-.18.23c-.12.15-.23.3-.35.44l-.31.36-.65.74Z"/><path class="cls-1" d="M33.37,25.86l-.11-.1a8.58,8.58,0,0,1-1.15-1.32,8.33,8.33,0,0,1,.67-10.57A26.85,26.85,0,0,1,36,10.93C45,4,45,1.11,44.94,1.09L44.87,0l.41,1,0,.07v0l-.08.69c-.17,1.3-.39,3.06-.56,4.43h0l-.15.88c0,.06,0,.12,0,.18l-.06.36q-.06.25-.12.54l0,.09c-.05.22-.11.46-.16.71S44,9.33,44,9.5s0,.19-.08.29,0,.19-.07.29-.1.37-.16.56l-.34,1-.11.33-.18.47-.12.32-.24.64-.21.46c-.21.49-.43,1-.69,1.5s-.5,1-.77,1.46c-.09.16-.18.32-.26.48s-.19.3-.27.44c-.29.48-.59,1-.92,1.42s-.62.89-.94,1.3l-.3.41-.43.52-.22.26-.31.38L37,22.4l-.61.68-.38.38-.22.22-.21.21-.35.34-1,.86-.28.24-.14.11ZM44.79,2.58C44,4.12,41.84,6.9,36.25,11.2A27,27,0,0,0,33,14.1,7.91,7.91,0,0,0,31.7,16a8,8,0,0,0,.69,8.21,7.94,7.94,0,0,0,1,1.16l.27-.22.14-.12.27-.23L35,24l.34-.33.21-.2a2.28,2.28,0,0,1,.22-.22l.37-.38.61-.67c.11-.11.21-.23.32-.35l.3-.37.23-.26.41-.51c.1-.13.2-.27.31-.4.31-.42.63-.84.93-1.29s.62-.94.9-1.41l.27-.43c.08-.16.17-.32.26-.48.26-.47.54-1,.76-1.44s.48-1,.69-1.48c.06-.16.13-.31.2-.47l.24-.62.12-.33.18-.46.1-.31.34-1,.15-.54c0-.1.06-.2.08-.29s.06-.19.08-.29.09-.33.13-.48.11-.49.16-.71l0-.08q.06-.29.12-.54a2.33,2.33,0,0,0,.06-.35,1.16,1.16,0,0,0,0-.18c.11-.65.18-1,.18-1h0C44.49,5,44.65,3.69,44.79,2.58Z"/><path class="cls-1" d="M31.65,50.29H.82A.82.82,0,0,1,0,49.47v-16a.83.83,0,0,1,.82-.83H31.65ZM.82,33a.48.48,0,0,0-.48.48v16A.49.49,0,0,0,.82,50H31.31V33Z"/></g></svg>