<svg id="Layer_1" data-name="Layer 1" xmlns="http://www.w3.org/2000/svg" viewBox="0 0 210.53 193.7"><defs><style>.cls-1{fill:#119fb9;}</style></defs><title>logo-leaf</title><path class="cls-1" d="M65.79,179.27c-.89-1-1.85-2.12-2.84-3.27S61,173.59,60,172.31s-2.09-2.61-3.14-4l-3.16-4.44c-.55-.77-1.1-1.54-1.65-2.33l-1.58-2.44c-1-1.66-2.16-3.32-3.22-5-2-3.53-4.22-7.11-6.11-10.93s-3.74-7.71-5.55-11.6c-1.6-4-3.31-8-4.62-12-1.47-4-2.57-8-3.72-11.79-.53-1.93-1-3.85-1.44-5.71-.23-.93-.46-1.86-.69-2.77s-.36-1.82-.55-2.72q-.52-2.7-1-5.22c-.3-1.69-.51-3.33-.75-4.91s-.49-3.07-.65-4.5-.29-2.81-.42-4.09-.25-2.48-.36-3.58-.12-2.14-.18-3.06c-.12-2.16-.2-3.76-.26-4.72L17.34,37.8c-3.21,7.63-47.25,115.6,18.84,146.82,0,0,15.63,6.1,31-.14l1.47-.59.89-.38c-.41-.41-.83-.86-1.28-1.36l-2.51-2.88"/><path class="cls-1" d="M83.92,107.59A153.92,153.92,0,0,0,67.7,93.28C16,53.44,17.52,37.36,17.52,37.36l-.18.43c.92,7.32,2.45,19.37,3.59,28.45,0-.55-.05-.84-.05-.84s.37,2.07,1,5.7c.17.9.32,1.9.54,3s.52,2.24.79,3.49.58,2.57.89,4,.78,2.83,1.19,4.34.82,3.09,1.31,4.7,1.07,3.26,1.63,5c.28.85.56,1.71.85,2.58s.66,1.72,1,2.6c.68,1.75,1.33,3.55,2.06,5.35,1.57,3.56,3.08,7.27,5,10.89,1.72,3.68,3.81,7.25,5.77,10.86,2.18,3.49,4.24,7,6.59,10.32,2.2,3.37,4.67,6.48,6.95,9.54,1.2,1.49,2.42,2.92,3.59,4.34l1.73,2.09c.61.66,1.2,1.32,1.79,2,1.17,1.29,2.32,2.53,3.42,3.74s2.28,2.29,3.35,3.36,2.09,2.12,3.09,3.05,1.95,1.77,2.85,2.57,1.72,1.56,2.49,2.26S80.33,172.42,81,173l2.17,1.79A45.63,45.63,0,0,0,89,168.25a59.7,59.7,0,0,1-5.12-60.66"/><path class="cls-1" d="M188.14.57l-4.66,37c-.06,1.25-.18,3.32-.32,6.11-.07,1.19-.12,2.51-.23,3.94s-.3,3-.47,4.63l-.54,5.28c-.22,1.86-.55,3.8-.83,5.83s-.59,4.15-1,6.34-.88,4.42-1.34,6.73c-.23,1.16-.47,2.34-.71,3.53s-.58,2.37-.88,3.57c-.62,2.4-1.19,4.88-1.86,7.38-1.5,4.94-2.9,10.12-4.81,15.22-1.7,5.2-3.9,10.28-6,15.45-2.34,5-4.55,10.17-7.17,15-2.44,4.94-5.27,9.56-7.89,14.12-1.38,2.23-2.8,4.39-4.17,6.53l-2,3.16-2.12,3c-1.41,2-2.77,3.89-4.1,5.74s-2.75,3.53-4.05,5.2-2.54,3.28-3.79,4.77l-3.67,4.23-3.25,3.72c-.58.65-1.13,1.22-1.64,1.76.38.16.75.34,1.14.49.64.26,1.29.51,1.9.77,19.91,8,40.11.18,40.11.18C249.17,149.92,192.29,10.43,188.14.57Z"/><path class="cls-1" d="M124.06,158.23c1.42-1.57,2.9-3.18,4.42-4.85l2.31-2.54c.74-.88,1.49-1.78,2.24-2.7,1.51-1.83,3.09-3.67,4.63-5.6,3-3.95,6.14-8,9-12.33,3-4.24,5.7-8.82,8.5-13.34,2.54-4.65,5.25-9.26,7.47-14C165,98.18,167,93.39,169,88.78c.94-2.32,1.79-4.65,2.66-6.91L173,78.51c.37-1.12.74-2.23,1.1-3.33l2.1-6.41c.65-2.08,1.15-4.12,1.71-6.07s1.08-3.82,1.52-5.61.79-3.52,1.16-5.12.69-3.12,1-4.52.49-2.69.7-3.86c.83-4.68,1.29-7.36,1.29-7.36s0,.37-.05,1.08C185,25.58,186.94,10,188.13.56,188,.21,187.9,0,187.9,0s2,20.77-64.83,72.24A193.67,193.67,0,0,0,99.61,93.37a59,59,0,0,0-9.85,14.22,60.06,60.06,0,0,0,13.28,70l2.8-2.32c.9-.75,2-1.6,3-2.5l3.21-2.91,3.68-3.33c1.29-1.2,2.6-2.56,4-3.93S122.6,159.77,124.06,158.23Z"/></svg>