<svg xmlns="http://www.w3.org/2000/svg" viewBox="0 0 118.37 93.41"><defs><style>.cls-1{fill:#333;}</style></defs><title>Artboard 26</title><g id="Kropsbehandling"><path class="cls-1" d="M91.31,66.39s-3.63-4.52-6.51-6.48-6-4.12-7.82-22.31c-.14-.59-.25-1.2-.35-1.79C75.88,31.69,75.1,27.44,66,24.29l-.07,0,0-.05-.17-.1c-2.63-1.55-4.2-4.65-4.66-9.2,0-.07,0-.16,0-.27C60.71,9.41,58.8.63,49,.55a8.79,8.79,0,0,0-6.86,2.58c-2.82,3.09-2.65,8.18-2.45,10.23a5.13,5.13,0,0,0,.51,1.77c.8,1.6,3.5,6.9,5.06,8,.31.22.7.53,1.15.88,2.15,1.67,6.64,5.15,8.12,4.54a8.59,8.59,0,0,0,4.07-4.38l.53.15a9.13,9.13,0,0,1-4.39,4.74c-1.64.68-5.18-1.91-8.67-4.62L45,23.62c-1.61-1.19-4.19-6.16-5.22-8.25a5.66,5.66,0,0,1-.57-2C39,11.29,38.8,6,41.78,2.76A9.21,9.21,0,0,1,48.92,0H49c5,0,8.53,2.24,10.62,6.53a21.19,21.19,0,0,1,1.87,8.08c0,.11,0,.19,0,.25.45,4.36,1.92,7.32,4.4,8.78l.23.14c9.41,3.26,10.21,7.67,11,11.93.11.59.22,1.2.35,1.79v0c1.74,17.94,4.85,20.06,7.58,21.92A39.86,39.86,0,0,1,91.74,66Z"/><path class="cls-1" d="M36.89,67.85l-.42-.36c.08-.1,8.51-9.7,13.24-13.57S55.15,45.29,56.28,38A16.48,16.48,0,0,1,63.8,27l.27.48A15.92,15.92,0,0,0,56.83,38.1c-1.16,7.4-1.92,12.28-6.77,16.25S37,67.76,36.89,67.85Z"/><path class="cls-1" d="M44.38,53.35,43.92,53c1.21-1.85,4.38-6.95,4.51-8.28.19-1.88,1.62-7.81,3.92-10.68l.43.35C50.58,37.17,49.16,43,49,44.81S44.56,53.07,44.38,53.35Z"/><path class="cls-1" d="M50.07,65l-.38-.4a116.59,116.59,0,0,1,9.66-7.73,16.11,16.11,0,0,0,6.8-11.67h.55a16.67,16.67,0,0,1-7,12.11A118.2,118.2,0,0,0,50.07,65Z"/><path class="cls-1" d="M62.51,71.8,62,71.62c1.86-5.53-1.89-10.74-1.93-10.79l.44-.33C60.53,60.56,64.46,66,62.51,71.8Z"/><path class="cls-1" d="M16.14,91.79H16c-8.28,0-13.48-.45-15.9-8.35A2.89,2.89,0,0,1,0,82.66a11.59,11.59,0,0,1,1.53-5.94c1.82-3.15,5.06-5.22,9.62-6.16a27.49,27.49,0,0,1,8.4,1.6c1.38.75,8.47,2.53,11.26,1.73l.15.53c-3,.85-10.21-1-11.68-1.78S12,71,11.26,71.1C6.86,72,3.75,74,2,77A10.89,10.89,0,0,0,.56,82.65a2.24,2.24,0,0,0,.1.63c2.31,7.54,7.1,7.93,15.37,8h.11c8,0,13.39-3.28,14.35-6.39.91-2.91-4.18-7-4.23-7l.34-.43C26.83,77.56,32,81.74,31,85S24.53,91.79,16.14,91.79Z"/><path class="cls-1" d="M33,89,33,88.42c.44,0,8.69-.9,13.78-1.09a33.7,33.7,0,0,1-5.34-1.65C35.82,83.39,32.91,80,33,75.84h0a3.79,3.79,0,0,1,.63-1.63c1.09-1.89,5.42-7.8,15.58-4.39l.29.09c4.78,1.5,13.07,4.29,14.92,6.12,2.15,2.12,9.46,2.83,10.61,2.68a4.39,4.39,0,0,1,.54,0c1.36,0,4.53-.12,13.31-5.78a6.08,6.08,0,0,1,1.67-.75c3.23-.88,12-1.59,14.36,1.07s13.36,6,13.47,6l-.15.53c-.46-.14-11.26-3.37-13.73-6.16-2-2.31-10.21-1.89-13.81-.91a5.7,5.7,0,0,0-1.51.69C80.26,79.11,77,79.19,75.58,79.23l-.48,0c-1.24.17-8.76-.55-11.08-2.83-1.29-1.28-6.65-3.46-14.7-6L49,70.35c-4.7-1.58-8.8-1.3-11.87.83a9.42,9.42,0,0,0-3.62,4.54h0v.13C33.36,85.33,49.8,87.33,50,87.35l-.06.55C46.62,87.56,33.18,89,33,89Z"/><path class="cls-1" d="M35.41,93.41l-.09-.54c.11,0,11.34-1.83,30.88-.94,0,0,2.2,0,3-1a1.1,1.1,0,0,0,.23-1C69,88,55.63,79.49,51,78.94l.07-.55c2.6.31,7.43,2.82,11.08,5.06,3.46,2.12,7.58,5.09,7.83,6.45a1.66,1.66,0,0,1-.34,1.42c-.94,1.13-3.31,1.16-3.41,1.16C46.7,91.6,35.52,93.4,35.41,93.41Z"/></g></svg>