<svg xmlns="http://www.w3.org/2000/svg" viewBox="0 0 72.51 92.87"><defs><style>.cls-1{fill:#333;}</style></defs><title>Artboard 25</title><g id="Vipper_og_bryn" data-name="Vipper og bryn"><path class="cls-1" d="M54.67,57.5a15.36,15.36,0,0,1-10.1-3.79,3.08,3.08,0,0,1-1.32-2.11A1.75,1.75,0,0,1,43.93,50h0a2.18,2.18,0,0,1,2.1-.16,15.8,15.8,0,0,0,3.77.41c4.7,0,6.49-1.78,6.93-2.32a7.61,7.61,0,0,1,.64-.72c.91-.91,2.15-2,2.93-1.83a2.68,2.68,0,0,1,1.89,1.88c.05.1.09.21.14.31a4.77,4.77,0,0,1,.42,1.69,7.53,7.53,0,0,1-5,7.7A9.22,9.22,0,0,1,54.67,57.5ZM44.15,50.32a1.42,1.42,0,0,0-.54,1.24,2.77,2.77,0,0,0,1.19,1.86,15,15,0,0,0,9.87,3.71,8.76,8.76,0,0,0,3-.49,7.16,7.16,0,0,0,4.75-7.32A4.7,4.7,0,0,0,62,47.76l-.15-.33c-.31-.74-.74-1.52-1.61-1.66-.47-.08-1.45.57-2.6,1.73a7,7,0,0,0-.62.69c-.47.58-2.35,2.46-7.21,2.46a16.21,16.21,0,0,1-3.9-.42,1.83,1.83,0,0,0-1.76.09Z"/><path class="cls-1" d="M36.81,92.87a5.17,5.17,0,0,1-1.34-.14l.11-.35s2,.53,5.75-.74c3.49-1.18,9.28-4.2,17.08-11.86a15.34,15.34,0,0,0,3.89-6.41,55.31,55.31,0,0,0,2.08-8.8c.35-3.79,3.37-22.87,4-24.85l.35.12c-.64,2-3.65,21-4,24.77a57.15,57.15,0,0,1-2.09,8.87,15.8,15.8,0,0,1-4,6.56C50.8,87.78,44.93,90.82,41.39,92A14.71,14.71,0,0,1,36.81,92.87Zm-1.29-.31.06-.18h0Z"/><path class="cls-1" d="M64.59,64.77l0-.36a4.8,4.8,0,0,0,2.27-1.13c1.11-.94,2.58-2.85,3.27-6.66v0h0c0-.17.14-1.21.25-2.41.36-3.87,1-10.36,1.76-11.92l0-.07a.76.76,0,0,0-.24-.59c-.32-.3-1.23-.66-3.74.35L68,41.59c3.14-1.27,4.09-.52,4.37,0,.14.28.18.71,0,.84-.75,1.62-1.36,8.18-1.69,11.73-.18,1.94-.23,2.37-.27,2.5-.71,3.93-2.25,5.91-3.42,6.88A4.87,4.87,0,0,1,64.59,64.77Z"/><path class="cls-1" d="M67.42,51.44l-.36-.1c.08-.29,2-7,3.82-8l.17.33C69.34,44.59,67.44,51.37,67.42,51.44Z"/><path class="cls-1" d="M67,56.5l-.27-.26a8.66,8.66,0,0,0,2.06-4.47,3.09,3.09,0,0,0-.3-2.39.73.73,0,0,0-.46-.3l0-.37a1.09,1.09,0,0,1,.71.42,3.54,3.54,0,0,1,.38,2.7A8.89,8.89,0,0,1,67,56.5Z"/><path class="cls-1" d="M67.16,46.46S62.87,42.1,63.33,37V36.9l0,0c0-.09,1-2.07.53-6.44-.43-3.79-2.14-10.18-7.79-19.12l.31-.2c5.75,9.1,7.45,15.59,7.87,19.44s-.36,6.07-.6,6.5c-.43,5,3.68,9.12,3.72,9.16Zm-3.78-9.61Z"/><path class="cls-1" d="M70.58,41l-.36-.07a47.29,47.29,0,0,0-.17-15.21C68.7,18,64.7,7.33,53.25.32L53.44,0A35.4,35.4,0,0,1,65.57,12.2a39.54,39.54,0,0,1,4.84,13.44A47.36,47.36,0,0,1,70.58,41Z"/><path class="cls-1" d="M37.53,15.28a7,7,0,0,1-1.59-.15l.09-.36s3.2.77,8.3-1.53a24.52,24.52,0,0,1,10.31-2.07l0,.37a24,24,0,0,0-10.13,2A17.21,17.21,0,0,1,37.53,15.28Z"/><path class="cls-1" d="M47.42,45.53A23.19,23.19,0,0,1,42.75,45l.07-.36C49,46,52.7,44.54,54.69,43.12a8.21,8.21,0,0,0,2.84-3.39l.35.12a8.33,8.33,0,0,1-3,3.56A12.57,12.57,0,0,1,47.42,45.53Z"/><path class="cls-1" d="M17.84,57.5A9.22,9.22,0,0,1,14.76,57a7.54,7.54,0,0,1-5-7.7,5.24,5.24,0,0,1,.42-1.69c.05-.1.1-.21.14-.31a2.68,2.68,0,0,1,1.89-1.88c.78-.13,2,.92,2.93,1.83a7.8,7.8,0,0,1,.65.72c.43.54,2.22,2.32,6.92,2.32a15.8,15.8,0,0,0,3.77-.41,2.18,2.18,0,0,1,2.1.16h0a1.74,1.74,0,0,1,.69,1.57,3.11,3.11,0,0,1-1.33,2.11A15.36,15.36,0,0,1,17.84,57.5ZM12.35,45.76h-.08c-.86.14-1.3.92-1.61,1.66,0,.11-.09.22-.14.33a4.47,4.47,0,0,0-.39,1.56,7.16,7.16,0,0,0,4.75,7.32,8.8,8.8,0,0,0,3,.49,15,15,0,0,0,9.87-3.71,2.77,2.77,0,0,0,1.19-1.86,1.4,1.4,0,0,0-.54-1.24,1.82,1.82,0,0,0-1.76-.09,16.18,16.18,0,0,1-3.89.42c-4.86,0-6.75-1.88-7.21-2.46a8.58,8.58,0,0,0-.62-.69C13.78,46.4,12.85,45.76,12.35,45.76Z"/><path class="cls-1" d="M29.9,36.77a14.18,14.18,0,0,1-4.13-.86c-1.81-.49-4.6-1.24-4.78-1.26l-.12,0a13,13,0,0,0-5.14.07c-1,.26-3.54,1-4,1.2l-.19-.32a21.66,21.66,0,0,1,3.94-1.81c2.56-.92,4.64-.64,9.49.35,1.12.29,2.88.72,3.13.74s2.79.49,3.14,1.13a.36.36,0,0,1,0,.36h0C31.25,36.42,31,36.77,29.9,36.77ZM18.14,34.05a20.53,20.53,0,0,1,2.78.21l.11,0c.2,0,4.08,1.06,4.85,1.27,4.17,1.37,5,.7,5.08.62-.09-.33-2.33-.9-2.85-.94s-2.9-.67-3.18-.75c-4.77-1-6.81-1.25-9.28-.36-.7.24-1.31.5-1.83.73l1.81-.51A9.51,9.51,0,0,1,18.14,34.05Z"/><path class="cls-1" d="M35.7,92.87A14.71,14.71,0,0,1,31.12,92c-3.54-1.19-9.4-4.23-17.28-12a15.68,15.68,0,0,1-4-6.56,55.89,55.89,0,0,1-2.1-8.87c-.35-3.79-3.36-22.81-4-24.77l.36-.12c.64,2,3.66,21.06,4,24.85a56.43,56.43,0,0,0,2.08,8.8,15.45,15.45,0,0,0,3.89,6.41c7.8,7.66,13.6,10.68,17.09,11.86,3.77,1.28,5.73.74,5.75.74l.1.35A5.08,5.08,0,0,1,35.7,92.87Z"/><path class="cls-1" d="M7.93,64.77a4.88,4.88,0,0,1-2.45-1.19c-1.17-1-2.71-2.95-3.42-6.88,0-.13-.09-.56-.27-2.5C1.46,50.65.85,44.09.11,42.47c-.17-.13-.13-.56,0-.84.29-.56,1.23-1.31,4.38,0l-.14.34c-2.52-1-3.43-.65-3.75-.35a.8.8,0,0,0-.24.59l0,.07c.79,1.56,1.39,8,1.75,11.92.11,1.2.21,2.24.25,2.41h0v0C3.73,63.91,7.92,64.4,8,64.41Z"/><path class="cls-1" d="M5.1,51.44c0-.07-1.93-6.85-3.63-7.72l.16-.33c1.85.94,3.74,7.66,3.82,8Z"/><path class="cls-1" d="M5.53,56.5a8.86,8.86,0,0,1-2.16-4.67,3.54,3.54,0,0,1,.38-2.7,1.11,1.11,0,0,1,.72-.42l0,.37v0a.76.76,0,0,0-.46.3,3.16,3.16,0,0,0-.29,2.39,8.64,8.64,0,0,0,2.05,4.47Z"/><path class="cls-1" d="M5.35,46.46l-.26-.26S9.24,42,8.82,37c-.25-.43-1-2.55-.6-6.5S10.33,20.2,16.08,11.1l.32.2C10.74,20.24,9,26.63,8.6,30.42c-.5,4.37.49,6.35.54,6.44l0,0V37C9.65,42.1,5.4,46.42,5.35,46.46Zm3.78-9.61Z"/><path class="cls-1" d="M1.93,41A47.36,47.36,0,0,1,2.1,25.64,39.54,39.54,0,0,1,6.94,12.2,35.4,35.4,0,0,1,19.07,0l.19.32C7.81,7.33,3.81,18,2.47,25.69A46.62,46.62,0,0,0,2.3,40.9Z"/><path class="cls-1" d="M35,15.28A17.2,17.2,0,0,1,28,13.58a24,24,0,0,0-10.14-2l0-.37a24.52,24.52,0,0,1,10.31,2.07c5.12,2.31,8.27,1.54,8.3,1.53l.09.36A7,7,0,0,1,35,15.28Z"/><path class="cls-1" d="M25.09,45.53a12.57,12.57,0,0,1-7.5-2.12,8.35,8.35,0,0,1-2.95-3.56l.35-.12a8,8,0,0,0,2.84,3.39c2,1.42,5.65,2.83,11.86,1.54l.07.36A23.12,23.12,0,0,1,25.09,45.53Z"/><path class="cls-1" d="M43.32,36.77c-1.09,0-1.34-.35-1.38-.42h0a.38.38,0,0,1,0-.36c.35-.64,3-1.11,3.14-1.13s2-.45,3.13-.74c4.86-1,6.93-1.27,9.49-.35a21.66,21.66,0,0,1,3.94,1.81l-.19.32c-.42-.22-3-.94-4-1.2a12.92,12.92,0,0,0-5.13-.07l-.13,0c-.18,0-3,.77-4.79,1.26A14,14,0,0,1,43.32,36.77Zm-1-.6c.09.09.94.74,5.07-.62.78-.21,4.65-1.25,4.86-1.27l.11,0a13.89,13.89,0,0,1,5.28.08l1.81.51c-.52-.23-1.13-.49-1.83-.73-2.46-.89-4.5-.61-9.28.37-.28.07-2.81.71-3.18.74S42.38,35.83,42.27,36.17Z"/><path class="cls-1" d="M36.17,74.17a28.28,28.28,0,0,1-4.05-.29,27.22,27.22,0,0,1-6.2-1.63l.15-.34a26,26,0,0,0,6.12,1.6,24.82,24.82,0,0,0,13.42-1.6l.14.34A23.8,23.8,0,0,1,36.17,74.17Z"/><path class="cls-1" d="M32.55,62.55a3.83,3.83,0,0,1-2.51-2A3.54,3.54,0,0,1,31,57.27c.33-.44.57-.78.79-1.12.54-.82,1.35-2.07,2.84-10.68l.37.07c-1.4,8-2.17,9.69-2.9,10.81-.22.35-.47.7-.81,1.14a3.23,3.23,0,0,0-.85,2.92c.45,1.3,2.23,1.78,2.25,1.79Z"/><path class="cls-1" d="M36.55,63.81a3,3,0,0,1-1.63-.62,6,6,0,0,1-.83-.66,2.86,2.86,0,0,0-2-1l0-.36a3.08,3.08,0,0,1,2.34,1,5.87,5.87,0,0,0,.78.62,2.62,2.62,0,0,0,1.43.56Z"/><path class="cls-1" d="M40.48,62.55l-.09-.35s1.8-.49,2.25-1.79a3.23,3.23,0,0,0-.85-2.92c-.34-.45-.59-.8-.81-1.14-.73-1.12-1.5-2.79-2.9-10.81l.37-.07c1.49,8.61,2.3,9.86,2.84,10.68.22.33.46.68.79,1.12A3.54,3.54,0,0,1,43,60.53,3.83,3.83,0,0,1,40.48,62.55Z"/><path class="cls-1" d="M36.48,63.81v-.37a2.62,2.62,0,0,0,1.43-.56,5.87,5.87,0,0,0,.78-.62,3.08,3.08,0,0,1,2.34-1l-.05.36a2.86,2.86,0,0,0-2,1,6,6,0,0,1-.83.66A2.91,2.91,0,0,1,36.48,63.81Z"/><path class="cls-1" d="M32.35,85.13l-.19-.32s4.18-2.36,7.77,0l-.2.31C36.33,82.88,32.39,85.11,32.35,85.13Z"/></g></svg>