<svg xmlns="http://www.w3.org/2000/svg" viewBox="0 0 152.26 94.35"><defs><style>.cls-1,.cls-2{fill:#333;}.cls-2{fill-rule:evenodd;}</style></defs><title>Artboard 24</title><g id="bitch_ass_eyebrows" data-name="bitch ass eyebrows"><path class="cls-1" d="M0,29.88s.62,8.53,5.69,8.64c5.44.11,19.28-3.63,37.16-11.28,0,0,34-12.44,35.47-12.72s24.13-6.11,40.15-3.09c0,0,26.7,4.78,30.92,6.56,0,0-6.77-8.68-26.18-13.79S88.43-3,52.36,7.67c0,0-30.67,10.92-33.37,11.37S-.85,25.05,0,29.88Z"/><path class="cls-2" d="M111.62,50.6c10.09,3.18,18,4.45,28.4-2.13-5.59,4.69-13.37,8.05-25.32,6.43,11.55,6.19,27.6,7,37-1.39-7.61,8-18,8.8-32.84,6.93,7.85,2.41,25.09,2.76,33.43-.54-8.39,3.87-29.11,3.8-35.82,1.49,4.94,2.73,20.37,4.07,29.14,2.53a62.69,62.69,0,0,1-19.1,1.22c2.75,1.39,12.42,2.81,23.57.32-11.25,3.63-21,3.35-34.48-.7,4.37,2.69,19.7,5.17,27.8,4.73-8.15,1-16.67-.3-19.53-.55a56.26,56.26,0,0,0,19.28,3.4C131.49,73.63,122,70.5,110.23,66.6,119,72,123.55,72.37,133.68,75c-5.14-.45-11.43-1-17.56-3.26a64.65,64.65,0,0,0,14.45,5.86c-9.66-1.41-18.65-3.92-26.77-9.81,9.06,8.27,16.49,8.92,31.15,12.5-16.57-1.45-23.38-2.61-35.3-11.14,5.41,3.93,11.87,9.1,25.38,12.58-10.8-1.52-21.31-6.46-26.67-11,6.35,6.31,10.25,7.8,19.72,11.5-10.14-2.61-14.61-4.15-22.63-11.18,5.84,5.69,8,7.6,17.44,11.31-7.33-1.79-9.47-3.71-15.45-7.68,3.7,3.78,8,7,17,10.11A51.41,51.41,0,0,1,92.92,73.73c3.7,3.78,5.78,6.26,10.73,9-7.18-3.5-8.23-4.74-13-9.19,5.22,6.21,6.16,8.6,14.38,13.34-8.84-4.22-8.79-4.79-15.2-10.53,3.65,4.35,6.78,8.07,13.49,10.38-5.09-1-11-5.56-13.64-8.67,4.55,7.31,7.2,9.84,15.28,16.3-9.32-5.42-16.25-11.78-21.36-19.13,0,0,5.53,9.12,10.9,13.61,5.41,3.93,5.36,4.5,5.36,4.5s-5.93-4.55-9.16-7.13a58.6,58.6,0,0,1-4.22-4.4,24.51,24.51,0,0,0,5.68,7.41c-3.8-2.64-6.93-6.36-9.53-9.47,2,3.06,4.07,6.11,6.63,9.79C84,83.32,83,82.08,82,80.26c1.42,3.58,2.84,7.16,3.16,10.06a79.78,79.78,0,0,0-6.43-12.07c2.45,4.82,2.53,10.58,2.18,14.58a69.71,69.71,0,0,0-4-13.59c.37,2.34.82,10.44-.1,14.39-.64-5.82.28-9.77-2.75-14.64.69,5.25-.18,8.62-2.39,14.19a32.44,32.44,0,0,0,.72-14.91c-.35,4-.27,9.77-3.43,13,1.59-5,1.32-8.52-.52-13.87.6,6.39,1,8.72-3.48,13.52,2-3.28,2.21-5.57,1.42-9.67-.92,4-1.79,7.33-4.32,10A13.56,13.56,0,0,0,63.6,79.81c.28,3.48.65,5.82-3,8.37,2-3.27,1.54-4.47,1.74-6.75-.82,2.81-3.3,4.89-5.17,6.46,2.69-4.38,3.26-4.33,3.18-10.09-.34,4-1.07,5.66-4.79,8.79,2.58-3.22,2.83-6.08,3.18-10.08-1.54,4.47-4,6.56-8.32,9.64,3.2-3.75,4.54-5.94,4.37-10.56-.92,4-3.55,7.75-7.13,9.17a14.35,14.35,0,0,0,5.46-9.89c-.86,3.38-4.49,5.36-8.12,7.35,0,0,5.54-4.12,5.69-5.84-.72,1.67-6.73,4.6-8.5,5,3.06-2,7.31-4.54,7.56-7.4a6.55,6.55,0,0,1-4.4,4.22c.62-.52,2.48-2.08,2.63-3.8a17,17,0,0,1-9.69,5.49c4.72-1.32,7.88-4.49,8.08-6.78-.72,1.66-5.54,4.12-10.21,4.87,4.72-1.32,8.44-4.45,9.16-6.11-1.24,1-7.3,4.54-11.87,4.15,4.1-.8,11.4-5.34,9.32-7.83C70.31,68.88,99.67,75.47,111.62,50.6Z"/></g></svg>